<svg viewBox="0 0 78 90" xmlns="http://www.w3.org/2000/svg" xmlns:xlink="http://www.w3.org/1999/xlink" id="f7e50d4f-6b61-4e3d-8aa6-d9a9735fd8fe" overflow="hidden"><style>
.MsftOfcResponsive_Fill_000000 {
 fill:#000000; 
}
</style>
<g id="head_Medium_Bangs_3" transform="translate(3601 34)"><path d="M-3558.18-25.988C-3549.67-25.988-3539-16.272-3535.88-12.138-3533.25-8.662-3533.62 9.245-3533.62 19.868-3533.62 22.09-3534.63 26.294-3534.99 28.42-3536.33 36.207-3542.15 42.738-3553.67 42.738-3563.05 42.738-3570.27 39.767-3577.25 32.168-3578.84 30.434-3586.62 36.641-3588.21 34.406-3592.36 34.406-3595.83-4.411-3587.68-16.054-3579.52-27.698-3566.7-25.988-3558.18-25.988Z" id="_Skin-31" fill="#FFFFFF"/><g><path d="M-3576.74 51.221C-3577.96 51.278-3578.33 50.117-3578.48 49.12-3578.8 47.826-3579.28 46.603-3579.69 45.341-3579.88 45.78-3580.71 47.54-3580.92 48.011-3581.16 48.618-3581.98 48.633-3582.41 48.234-3582.63 48.062-3582.76 47.809-3582.78 47.536-3582.82 46.13-3583.02 44.773-3583.42 43.428-3585.45 45.943-3587.44 47.869-3590.37 48.416-3590.81 48.491-3591.26 48.262-3591.48 47.876-3591.82 47.214-3591.07 46.671-3590.82 46.115-3598.16 42.315-3597.31 30.849-3594.26 24.304-3594.29 24.216-3594.33 24.126-3594.36 24.039L-3594.36 24.038C-3599.02 11.323-3597.21-3.317-3590.98-14.132-3588.68-18.117-3585.9-21.663-3582.51-24.322-3577.84-27.973-3572.09-29.909-3565.81-29.772-3560.69-29.661-3554.41-28.072-3549.83-25.097L-3549.29-24.647C-3548.15-24.235-3547.01-23.495-3545.82-22.385-3537.32-23.386-3528.61-16.353-3529.8-7.438-3530.12-4.186-3530.31 0.5-3533.61 2.313-3525.96 15.321-3527.89 33.394-3533.42 46.912-3533.95 47.321-3534.81 47.366-3535.24 46.781-3536.61 45.038-3538.51 43.915-3540.44 43.7-3542.2 43.592-3544.34 43.854-3545.47 42.173-3550.07 43.915-3555.54 43.544-3559.72 40.883-3560.71 40.087-3562.4 39.221-3562.2 37.741-3561.89 37.63-3561.57 37.548-3561.25 37.497-3555.9 40.535-3548.4 42.622-3543.95 38.104-3532.14 30.03-3536.45 15.801-3536.8 3.784-3536.1 3.803-3535.96 2.624-3536.7 2.582-3538.69 2.714-3540.77 2.387-3542.75 2.528-3542.89 1.759-3542.57-0.519-3543.75-0.688-3544.01-0.704-3544.24-0.517-3544.27-0.259-3544.39 0.566-3544.45 1.399-3544.46 2.233-3547.44 2.193-3550.43 1.943-3553.4 2.046-3554.02 1.366-3554.15 0.23-3554.5-0.622-3554.72 0.418-3555.05 1.434-3555.46 2.413-3559.6 2.427-3564.13 2.472-3568.63 3.42-3568.9 3.182-3569.08 2.848-3569.12 2.484-3569.49-0.29-3569.96-2.344-3570.71-4.416-3571.91-2.407-3573.73-0.945-3575.27 0.821-3574.81 3.741-3575.38 6.786-3576.71 9.412-3576.84 10.212-3576.99 11.047-3577.46 11.721-3576.85 12.444-3575.4 14.458-3577.06 14.752-3577.79 14.591-3578.16 13.7-3578.87 13.4-3582.12 12.092-3586.74 13.75-3586.15 18.108-3585.98 19.762-3585.26 21.857-3583.73 22.777-3582.97 23.294-3581.89 23.25-3581.17 22.675-3580.72 22.298-3580.19 21.943-3579.58 21.94-3577.75 21.513-3577.52 24.476-3578.75 25.297-3573 31.377-3572.09 41.682-3575.15 49.472-3575.41 50.212-3575.73 51.296-3576.74 51.221Z" class="MsftOfcResponsive_Fill_000000" fill="#000000"/><path d="M-3579.44 19.867C-3580.64 19.879-3581.06 18.757-3581.61 17.916-3581.97 17.404-3582.37 16.706-3582.96 16.499-3583.27 16.304-3582.91 16.148-3582.72 16.072-3581.09 15.025-3578.75 15.831-3578.05 17.634-3577.67 18.595-3578.33 19.903-3579.44 19.867Z" class="MsftOfcResponsive_Fill_000000" fill="#000000"/><g><path d="M-3587.04 28.177C-3587.47 28.161-3587.86 28.657-3587.59 29.041-3587.03 29.929-3586.72 30.939-3586.41 31.903-3586.3 32.303-3586.16 32.851-3585.64 32.788-3585.27 32.785-3584.95 32.38-3585.1 32.051-3585.52 30.78-3585.85 29.541-3586.57 28.413-3586.68 28.266-3586.85 28.177-3587.04 28.177L-3587.04 28.177Z" fill="#FFFFFF"/><path d="M-3582.6-16.059C-3585.02-14.636-3585.95-11.502-3587.03-8.994-3587.17-8.094-3588.84-6.207-3587.33-5.876-3587.14-5.877-3586.96-6.003-3586.89-6.19-3585.57-9.205-3584.72-12.714-3582.24-14.975-3581.71-15.293-3582.02-16.067-3582.6-16.059L-3582.6-16.059Z" fill="#FFFFFF"/><path d="M-3550.74-16.055C-3551.3-16.074-3551.69-15.206-3551.08-14.96-3548.78-13.94-3547.73-11.485-3546.8-9.301-3546.65-8.849-3546.02-8.936-3545.82-9.3-3545.7-9.479-3545.68-9.708-3545.76-9.906-3546.83-12.34-3548.05-15.149-3550.74-16.055L-3550.74-16.055Z" fill="#FFFFFF"/><path d="M-3547.02-17.475C-3547.45-17.478-3547.67-16.924-3547.48-16.572-3546.61-15.884-3545.36-15.626-3544.58-14.723-3543.85-14.031-3543.2-13.254-3542.65-12.409-3542.55-12.24-3542.36-12.137-3542.16-12.138-3541.72-12.12-3541.32-12.63-3541.62-13.015-3543.27-15.42-3544.88-16.869-3547.02-17.475Z" fill="#FFFFFF"/></g></g></g></svg>