<svg viewBox="0 0 224 391" xmlns="http://www.w3.org/2000/svg" xmlns:xlink="http://www.w3.org/1999/xlink" id="634c4b6a-9c5c-4007-8794-dc43ec21c090" overflow="hidden"><style>
.MsftOfcResponsive_Fill_000000 {
 fill:#000000; 
}
</style>
<g><path d="M111.72 60.389C111.72 60.389 113.834 47.694 103.692 45.267 93.55 42.84 84.828 42.678 86.435 50.225 87.38 54.661 87.132 61.202 86.145 62.945 85.389 64.279 82.265 67.549 79.059 69.392 71.331 73.834 62.16 71.513 60.067 94.947 57.974 118.381 57.105 128.633 57.105 128.633 57.105 128.633 49.669 129.572 44.851 127.611 40.033 125.65 34.779 123.87 33.699 123.87 32.619 123.87 20.615 116.567 18.017 116.262 15.055 115.914 9.943 117.174 8.376 118.585 7.795 119.108 8.666 121.141 8.666 121.141 8.666 121.141 6.767 122.292 6.633 123.697 6.499 125.102 7.33 126.311 7.33 126.311 7.33 126.311 6.709 126.233 6.285 127.415 5.861 128.597 6.75 130.203 6.75 130.203 6.75 130.203 5.182 131.19 5.879 133.223 6.576 135.256 10.273 135.399 11.46 133.86 11.46 133.86 14.697 135.154 15.82 133.891 15.82 133.891 21.909 138.741 27.136 136.417 27.136 136.417 55.576 155.63 71.21 144.205 71.864 143.727 72.538 144.441 72.438 145.245L69.476 170.858C68.914 180.702 70.521 207.565 75.4 224.176L82.818 242.612C82.967 243.051 83.507 243.207 83.867 242.916L87.93 239.625C88.447 239.206 89.219 239.368 89.523 239.96L97.005 254.494C97.005 254.494 84.053 269.304 76.212 285.102 71.659 294.275 65.252 319.074 61.46 324.597 58.149 329.418 49.495 331.741 49.495 335.923 49.495 335.923 42.235 339.408 43.977 345.622 45.622 351.49 48.856 354.566 48.856 354.566 48.856 354.566 51.678 353.409 51.922 354.104 52.166 354.799 51.411 356.193 51.295 358.516 51.179 360.839 51.934 363.743 51.934 363.743 51.934 363.743 58.088 376.817 64.537 380.877 71.076 384.993 80.451 386.104 83.065 382.387 86.73 377.174 85.911 374.488 85.911 374.488 85.911 374.488 78.856 362.162 79.29 349.63 79.723 337.106 82.439 322.782 90.938 310.189 91.187 309.819 91.763 309.962 91.815 310.404 92.131 313.112 92.78 319.435 92.242 321.693 91.55 324.599 88.154 338.106 88.118 340.743 88.083 343.38 86.782 351.72 87.479 352.824 88.176 353.928 94.855 356.367 96.307 356.135 97.759 355.903 100.195 354.745 100.195 354.745 100.836 354.423 101.81 354.791 101.94 355.496L101.882 359.678 104.554 362.117C104.554 362.117 118.416 369.842 130.574 362.872 132.882 361.549 130.865 352.807 128.019 351.953 122.211 350.211 107.443 341.24 106.297 332.787 105.368 325.934 115.015 308.373 116.601 298.19 118.187 288.007 119.142 269.881 119.142 269.881 119.142 269.881 123.006 263.216 123.373 260.652 123.721 258.213 123.141 253.682 123.141 253.682L120.333 235.329 123.606 224.177C123.606 224.177 127.555 224.409 128.369 223.712 129.182 223.015 130.808 184.45 130.774 159.361 130.767 154.131 131.014 149.489 131.066 145.897 131.389 123.814 129.588 91.928 129.588 91.928 129.588 91.928 133.405 89.777 134.292 87.979 135.179 86.181 134.64 84.03 134.64 84.03 134.64 84.03 164.929 74.448 170.417 69.452 174.947 65.328 199.186 35.882 199.186 35.882 200.89 37.624 202.983 36.463 205.342 35.65 205.653 35.543 206.301 35.92 206.116 36.192 205.475 37.139 205.871 38.609 207.278 38.476 209.393 38.277 211.034 35.92 211.034 35.92 211.034 35.92 214.596 33.713 214.635 30.151 214.646 29.182 213.916 27.969 214.015 27.402 214.635 23.878 214.324 22.099 213.086 21.362 211.291 20.293 209.519 20.589 207.703 20.328 207.373 20.28 207.26 19.859 207.521 19.652 210.03 17.656 218.026 11.134 218.352 8.817 218.682 6.473 218.004 5.1 217.461 5.022 216.919 4.945 200.698 18.419 197.094 22.369 193.49 26.319 191.988 29.618 191.988 29.618 191.988 29.618 165.934 49.769 164.801 52.261 163.639 54.817 141.724 65.194 132.354 66.858 125.184 68.132 127.166 64.922 116.972 66.484 115.823 66.66 114.647 66.426 113.536 66.083 112.053 65.625 109.943 64.853 109.896 64.573 109.746 63.649 110.026 62.427 111.72 60.389Z" fill="#FFFFFF"/><g><path d="M98.112 352.758C95.718 351.716 92.72 351.346 91.227 349.098 90.951 348.605 88.961 347.593 88.698 347.172 88.546 346.928 88.252 346.812 87.974 346.887 87.113 347.222 87.536 351.112 87.382 352.079 87.333 352.39 87.512 352.692 87.809 352.797 89.614 353.226 96.98 356.957 97.934 354.874 97.974 353.98 99.066 353.342 98.112 352.758Z" fill="#FFFFFF"/><path d="M131.199 358.131C131.021 357.887 128.82 357.567 128.4 357.976 127.92 358.61 128.743 358.802 127.837 359.655 126.957 360.451 125.262 360.772 124.492 360.476 124.245 360.381 123.966 360.444 123.784 360.636 122.719 361.756 121.061 362.055 119.458 362.344 116.753 363.065 114.034 362.366 111.727 360.929 109.245 358.508 106.116 356.725 103.079 355.19 102.865 355.076 102.605 355.091 102.405 355.228 101.673 355.842 101.973 359.035 102.201 359.257 108.316 365.378 119.067 366.808 127.309 364.101 128.114 363.673 129.586 363.869 129.865 363.026 130.6 362.02 131.564 359.386 131.199 358.131Z" fill="#FFFFFF"/><path d="M84.507 377.584C84.02 376.907 82.552 377.888 81.668 377.009 81.531 376.9 81.357 376.851 81.182 376.872 80.248 377.363 79.902 378.252 78.524 378.156 77.287 378.248 76.822 376.763 75.903 377.157 73.702 378.128 73.029 376.336 71.934 376.363 71.026 376.607 70.265 376.135 68.953 374.988 68.741 374.803 68.537 374.787 68.295 374.93 67.075 375.65 65.045 374.081 64.326 372.994 64.157 372.738 62.955 374.145 62.216 373.304 58.117 368.637 55.576 362.192 53.354 356.663 54.409 356.635 54.949 355.945 56.02 355.609 56.483 355.439 56.734 354.693 56.33 354.409 55.651 353.838 54.083 349.365 53.29 348.059 52.393 347.027 50.806 350.329 50.812 350.634 50.021 348.687 48.913 345.984 48.179 344.148 48.06 343.851 50.011 342.611 49.843 341.95 49.772 341.746 48.849 341.021 48.787 337.868 48.812 337.533 48.602 337.215 48.265 337.148 47.545 337.026 45.935 339.967 45.726 340.312 43.476 343.788 45.827 347.663 47.225 349.966 47.76 350.571 48.802 353.459 49.788 352.997 50.44 352.589 52.106 355.903 52.106 356.802 50.447 365.026 58.439 375.198 64.096 379.5 69.092 383.243 74.787 384.237 80.626 383.604 84.038 383.508 84.664 377.816 84.507 377.584Z" fill="#FFFFFF"/></g><g><path d="M122.48 350.278C118.469 348.223 115.515 346.226 113.183 343.994 107.682 343.938 102.928 349.107 102.164 354.053 102.097 354.428 102.378 354.713 102.706 354.837 105.567 356.305 108.525 357.824 111.075 359.798 111.407 360.067 111.947 359.915 112.087 359.511 113.472 355.83 117.309 352.831 122.35 351.491 122.914 351.361 123.008 350.525 122.48 350.278Z" fill="#FFFFFF"/><path d="M109.497 340.307C109.59 340.097 109.565 339.853 109.432 339.665 108.34 338.127 107.389 336.48 106.603 334.772 106.467 334.476 106.134 334.326 105.822 334.419 99.859 335.11 97.942 339.701 93.222 340.079 92.327 340.079 91.415 339.807 90.471 339.149 90.285 339.019 90.044 338.995 89.836 339.086 88.702 340.339 89.192 344.703 90.463 346.56 90.807 347.117 90.961 347.643 90.947 348.216 91.258 350.512 94.664 351.521 96.053 351.949 96.47 352.073 96.92 351.705 96.875 351.269 96.921 344.462 103.447 341.69 108.979 340.69 109.208 340.664 109.404 340.518 109.497 340.307Z" fill="#FFFFFF"/><path d="M79.448 358.438C70.359 353.683 60.481 353.702 53.868 356.315 53.535 356.452 53.375 356.831 53.509 357.165 54.812 360.264 60.018 373.111 63.35 373.499 68.188 369.88 76.271 368.845 82.152 371.091 82.671 371.309 83.234 370.719 82.98 370.211 81.334 366.583 80.146 362.622 79.448 358.438Z" fill="#FFFFFF"/><path d="M75.922 347.516C76.851 347.632 78.425 348.831 78.737 347.503 78.783 345.936 78.895 344.316 79.069 342.687 74.045 334.5 59.637 339.096 58.581 330.011 58.4 329.053 57.432 329.536 56.974 329.94 56.099 330.677 53.889 331.131 53.477 332.152 53.101 335.812 52.178 340.988 48.515 343.671 48.269 343.851 48.18 344.178 48.301 344.457 54.539 359.843 45.061 336.696 75.922 347.516Z" fill="#FFFFFF"/></g><path d="M134.394 83.803C134.475 82.36 133.284 66.298 131.84 67.262 127.97 67.778 124.539 65.877 120.489 66.503 116.927 67.058 114.602 67.072 111.105 65.538 110.846 65.425 110.205 65.348 110.017 65.559 109.829 65.77 110.136 66.22 110.278 66.465 111.658 68.846 112.909 71.451 112.728 74.37 112.656 76.733 112.126 78.518 111.241 79.337 108.078 82.286 86.451 66.532 84.849 64.882 84.624 64.65 83.769 65.464 83.068 66.198 76.97 72.587 70.215 70.947 64.482 78.859 62.291 82.48 59.709 89.917 59.894 98.955 61.316 100.232 70.357 106.848 74.079 107.972 75.016 108.255 76.502 108.573 76.796 111.5 77.761 121.125 77.594 128.086 76.041 135.836 74.871 138.653 73.648 141.07 71.743 143.386 71.498 143.671 72.005 144.987 72.324 145.186 72.146 149.105 71.65 152.666 71.279 157.673 71.254 158.007 71.936 158.892 72.266 158.951 89.454 162.075 116.109 169.128 130.462 156.725 131.222 136.077 130.219 114.792 129.155 93.758 129.039 90.539 130.565 90.74 130.739 90.615 133.719 88.481 134.573 87.691 134.394 83.803Z" fill="#FFFFFF"/><g><path d="M218.103 4.836C218.046 4.761 217.981 4.705 217.91 4.671 217.07 3.772 213.498 7.239 212.689 7.855 210.964 9.288 209.262 10.748 207.531 12.175 204.188 14.929 200.586 17.347 197.643 20.549 195.166 23.057 193.103 25.896 190.912 28.64 186.201 32.759 181.546 36.995 176.648 40.901 172.635 43.921 168.31 46.648 165.209 50.648 164.19 51.262 163.419 52.418 162.479 53.08 161.94 53.459 160.973 53.88 160.288 54.252 151.674 58.636 138.673 66.148 129.069 66.032 128.408 65.978 127.694 65.744 126.975 65.58 124.231 64.968 121.376 65.07 118.601 65.407 115.868 65.933 113.177 65.121 110.611 64.222 110.662 63.079 111.073 62.002 112.099 61.138 112.749 60.592 111.915 59.576 111.207 59.984 109.312 61.064 108.725 63.426 109.128 65.464 108.319 65.741 108.187 66.744 108.719 67.334 110.188 69.13 110.999 71.43 111.107 73.739 111.164 74.915 111.04 76.08 110.715 77.212 110.484 78.48 109.907 78.711 108.736 78.257 100.78 74.783 93.36 70.124 86.202 65.234 85.473 64.727 84.528 65.913 85.238 66.486 91.496 71.503 98.396 75.665 105.617 79.145 106.857 79.742 108.165 80.498 109.577 80.555 112.676 80.678 113.272 76.774 113.348 74.412 113.533 71.38 112.279 68.652 110.81 66.138 114.408 67.693 116.715 67.737 120.502 67.156 121.9 67.06 123.309 67.044 124.706 67.179 127.109 67.579 129.463 68.354 131.925 67.906 132.724 73.183 133.709 78.457 133.709 83.82 133.874 87.515 133.154 88.053 130.326 90.084 129.767 88.05 129.31 85.659 127.646 84.234 125.617 83.277 127.718 88.383 127.778 89.168 128.128 90.697 128.343 92.251 128.469 93.813 129.743 114.584 129.377 135.398 129.262 156.195 115.068 168.48 89.036 160.753 72.406 157.794 72.731 153.428 73.014 149.057 73.213 144.687 73.225 144.423 73.101 144.228 72.921 144.115 74.954 141.64 76.094 138.801 77.32 135.855 79.018 125.187 78.429 114.308 76.818 103.668 76.659 102.233 76.774 100.672 76.204 99.322 76.065 99.032 75.607 99.12 75.532 99.411 75.496 99.55 75.47 99.691 75.449 99.835 74.193 99.971 74.742 102.334 74.65 103.231 74.667 104.728 74.82 106.194 74.991 107.68 69.852 105.386 65.127 102.274 60.822 98.667 63.218 67.373 73.219 79.187 85.75 64.78 86.836 65.092 87.086 63.496 87.267 62.73 87.382 62.326 88.075 61.351 87.578 61.072 88.293 56.618 87.847 52.006 86.43 47.731 86.177 46.972 84.994 47.284 85.222 48.064 86.587 52.699 86.707 57.669 85.64 62.378 82.601 65.97 78.507 68.523 74.216 70.365 71.681 71.466 69.141 72.489 66.972 74.246 57.581 82.429 59.257 98.376 57.661 109.788 57.234 115.84 56.449 121.894 56.153 127.945 52.253 128.456 48.285 127.844 44.576 126.595 40.677 125.314 37.175 122.947 32.926 122.964 30.862 121.375 28.363 120.352 26.128 119.016 21.417 116.22 17.677 113.832 12.17 116.326 10.932 117.008 6.823 117.539 7.56 119.476 7.569 119.803 7.597 120.128 7.64 120.45 6.525 121.952 5.326 123.929 6.161 125.824 4.882 126.773 4.932 128.895 5.623 130.286 4.477 131.129 5.099 133.38 5.897 134.265 7.196 135.752 10.111 136.656 11.434 134.749 12.764 135.296 14.692 135.773 15.774 134.588 18.38 137.433 22.802 138.237 26.454 137.455 29.944 140.434 34.338 142.383 38.369 144.574 45.69 148.467 54.14 149.471 62.329 149.053 65.642 148.948 69.127 148.069 71.516 145.666 64.616 178.089 66.6 213.827 81.413 243.839 82.093 245.179 84.318 245.017 84.806 243.62 85.91 242.654 87.044 241.728 88.207 240.841 88.818 243.24 90.22 245.389 91.307 247.599 92.527 249.929 93.778 252.242 95.014 254.564 80.396 268.51 72.66 287.77 66.637 306.669 64.516 312.743 63.504 319.447 59.589 324.713 56.073 329.753 49.863 329.098 48.364 335.695 47.97 335.756 47.616 335.925 47.309 336.166 45.863 336.189 44.365 338.598 43.611 339.723 41.349 343.213 42.731 347.217 44.699 350.484 45.625 352.198 46.651 353.856 47.759 355.458 48.418 356.427 49.506 356.406 50.347 355.694 50.488 355.716 50.632 355.731 50.776 355.739 49.682 359.55 50.199 363.575 52.124 367.03 56.864 377.854 65.782 386.816 78.401 385.762 83.882 385.562 85.194 383.102 86.395 378.184 86.514 377.821 86.434 377.493 86.248 377.24 86.521 376.639 86.699 376.132 86.832 375.448 87.273 375.087 87.491 374.48 87.103 373.848 75.68 355.06 80.99 331.374 90.651 312.992 90.885 317.941 90.586 322.917 89.626 327.782 89.13 330.553 88.14 333.194 87.436 335.908 86.872 339.096 86.108 342.618 87.283 345.744 86.905 346 86.709 346.461 86.983 346.866 86.688 348.609 86.346 350.315 86.61 352.12 86.301 352.624 87.016 353.739 87.44 354.084 89.303 355.259 91.501 355.9 93.584 356.588 94.809 356.947 96.234 357.239 97.539 357.041 98.635 357.358 100.112 356.837 100.97 356.02 101.053 356.874 100.785 357.855 101.031 358.663 100.098 360.701 103.073 362.591 104.547 363.442 111.995 367.686 122.466 368.747 130.133 364.571 130.487 364.711 130.901 364.7 131.308 364.446 133.618 362.991 132.722 359.888 131.917 357.832 132.901 354.379 129.968 351.331 126.862 350.332 118.351 346.611 111.327 342.166 107.049 333.574 108.117 329.477 108.855 325.288 110.611 321.4 117.785 305.051 120 287.033 120.484 269.322 122.541 266.557 124.358 263.197 124.48 259.697 125.703 259.246 123.801 251.762 123.757 250.23 123.391 247.775 123.019 245.321 122.629 242.87 122.364 240.354 121.532 237.805 121.575 235.302 122.313 231.92 123.351 228.702 124.051 225.296 125.461 225.391 129.618 225.871 129.673 223.832 130.155 219.67 130.418 215.477 130.714 211.298 131.789 196.135 132.49 180.937 132.397 165.733 132.416 163.773 132.301 161.771 131.857 159.868 132.496 157.92 132.567 155.706 132.448 153.659 132.454 151.551 132.476 149.442 132.463 147.335 132.33 141.59 132.79 135.814 132.162 130.087 132.157 121.864 131.86 113.643 131.548 105.429 131.476 100.991 131.601 96.48 130.747 92.104 131.853 92.226 132.757 91.307 133.51 90.584 135.211 89.091 135.968 86.93 135.854 84.673 145.176 82.815 153.965 78.717 162.53 74.697 165.443 73.252 168.329 71.756 171.206 70.241 171.514 70.08 171.655 69.837 171.672 69.588 181.136 58.882 190.54 48.082 199.524 36.966 201.234 38.279 203.541 37.264 205.27 36.497 204.467 37.867 205.966 39.278 207.322 39.244 209.039 39.295 211.795 37.105 212.266 35.528 214.67 33.724 215.755 30.387 214.474 27.609 214.866 25.738 214.941 23.621 214.281 21.808 213.44 20.065 210.298 20.004 208.589 19.903 210.893 17.959 213.103 15.978 215.328 13.954 218.343 11.519 220.46 8.62 218.103 4.836ZM10.344 119.004C16.177 117.267 16.75 116.238 22.712 119.152 19.781 118.102 17.752 118.696 15.556 120.851 12.631 121.582 11.021 123.167 13.307 125.94 13.187 126.181 13.076 126.466 12.956 126.717 12.911 126.872 12.934 127.107 12.818 127.24 11.61 127.926 10.919 125.601 10.587 124.804 9.865 123.057 9.384 121.201 8.613 119.481 9.163 119.239 9.744 119.145 10.344 119.004ZM7.599 123.671C7.726 123.334 7.926 122.986 8.126 122.63 8.976 125.029 9.766 129.814 13.241 129.062 13.652 129.571 13.95 130.031 14.191 130.638 12.057 130.966 10.407 128.974 9.168 127.511 8.31 126.483 7.055 125.114 7.599 123.671ZM7.131 132.881C6.838 132.533 6.654 132.086 6.745 131.627 7.661 132.426 8.628 133.198 9.668 133.838 8.824 134.242 7.669 133.512 7.131 132.881ZM14.043 133.494C11.743 133.584 9.474 131.486 7.787 130.108 6.907 129.331 7.034 128.403 7.08 127.415 8.859 129.825 11.144 132.265 14.314 132.531 14.625 132.967 14.625 133.404 14.043 133.494ZM70.954 141.71C68.981 144.635 65.894 145.943 62.447 146.086 52.435 147.178 42.526 144.314 34.084 139.003 32.294 138.035 30.508 137.158 28.639 136.394 28.944 136.085 28.954 135.414 28.44 135.309 27.46 135.146 26.441 135.765 25.475 135.932 24.402 136.118 23.267 136.103 22.195 135.913 20.054 135.634 18.23 134.447 16.294 133.606 16.441 132.979 16.319 132.288 15.967 131.733 16.58 130.402 15.8 128.523 14.538 127.846 14.65 127.572 14.731 127.252 14.717 126.959 16.525 127.599 18.173 126.074 19.994 126.145 20.646 127.879 23.228 134.12 25.563 133.266 26.734 132.677 25.471 131.49 24.824 131.018 23.34 129.659 22.14 128.001 21.281 126.188 21.882 126.258 22.474 126.396 23.048 126.599 23.858 126.886 24.586 127.572 25.42 127.723 25.988 127.826 26.397 127.302 26.146 126.778 24.681 124.576 20.505 124.21 18.118 124.801 16.68 125.265 15.174 126.237 14.253 124.416 14.099 124.158 13.709 123.592 13.845 123.275 13.96 123.007 14.553 122.81 14.78 122.673 15.249 122.392 15.708 122.129 16.139 121.823 17.427 121.421 18.697 120.313 20.159 120.54 21.45 120.691 22.941 121.909 24.204 121.246 24.673 120.998 24.685 120.339 24.357 119.975 26.795 121.193 29.178 122.488 31.659 123.621 31.606 125.043 33.896 124.926 34.881 125.211 38.279 125.895 41.192 127.854 44.504 128.815 45.717 129.511 61.961 131.645 58.135 127.957 59.198 118.872 59.737 109.71 60.641 100.601 65.078 104.194 69.919 107.277 75.187 109.489 75.806 115.198 76.414 120.935 75.965 126.682 75.721 132.052 74.506 137.513 70.954 141.71ZM50.806 336.841C51.139 335.578 51.664 334.369 52.559 333.417 52.158 335.91 51.589 338.478 50.246 340.642 50.309 339.365 50.484 338.065 50.806 336.841ZM48.101 337.787C48.109 338.653 48.166 341.949 49.193 342.164 48.943 342.486 48.683 342.802 48.412 343.111 47.908 341.788 47.231 340.463 47.227 339.022 47.525 338.621 47.897 338.232 48.101 337.787ZM50.414 352.079C50.077 352.168 49.77 352.26 49.481 352.406 47.473 348.967 43.773 344.726 46.243 340.668 47.549 344.541 49.233 348.234 50.724 352.034 50.623 352.037 50.52 352.051 50.414 352.079ZM49.918 346.69C49.58 345.858 49.221 345.029 48.867 344.197 52.534 341.511 53.653 336.515 54.093 332.218 55.35 331.476 56.727 330.943 57.898 330.083 58.697 337.334 67.375 336.752 72.614 338.678 73.779 339.111 74.895 339.727 75.904 340.45 76.844 341.033 77.502 341.993 78.384 342.618 78.211 344.233 78.097 345.856 78.048 347.484 70.555 345.26 55.176 339.716 50.992 349.337 50.636 348.454 50.277 347.572 49.918 346.69ZM55.807 351.212C55.139 350.053 54.515 348.769 53.595 347.802 59.572 342.697 71.24 346.914 78.024 348.752 78 351.344 78.145 353.944 78.473 356.518 71.616 354.117 63.975 352.179 56.866 354.621 57.193 353.572 56.286 352.13 55.807 351.212ZM51.319 350.136C51.457 350.138 51.599 350.079 51.691 349.939 52.062 349.373 52.494 348.848 52.973 348.371 53.62 349.439 54.213 350.527 54.65 351.699 55.139 352.651 55.209 354.307 56.064 354.923 55.269 355.244 54.48 355.6 53.708 356.004 52.911 354.049 52.114 352.093 51.319 350.136ZM82.446 381.581C81.596 382.784 79.986 382.912 78.634 383.019 72.004 383.586 65.365 380.858 60.92 375.941 58.474 373.374 56.685 370.39 55.009 367.281 53.078 364.043 51.817 360.765 52.709 356.954 55.535 364.106 58.853 371.451 64.663 376.69 68.931 379.901 77.889 382.921 82.97 380.571 82.833 380.924 82.668 381.266 82.446 381.581ZM83.736 378.391C80.451 381.155 75.455 379.918 71.721 378.668 68.698 377.744 65.801 376.316 63.728 373.864 63.89 373.805 64.051 373.743 64.211 373.681 65.118 375.051 67.177 376.348 68.741 375.427 69.846 376.392 71.245 377.282 72.64 376.907 73.676 377.973 75.183 378.265 76.47 377.621 77.552 379.42 80.075 379.019 81.229 377.522 81.961 378.103 83.026 378.198 83.932 377.949 83.866 378.096 83.799 378.243 83.736 378.391ZM65.148 373.311C66.418 372.797 67.692 372.269 69.021 371.907 68.479 374.68 67.554 375.564 65.148 373.311ZM74.722 371.036C75.724 371.004 76.734 371.032 77.733 371.137 77.185 373.66 77.007 378.115 73.226 376.671 75.045 375.713 75.549 372.797 74.722 371.036ZM79.021 371.32C79.606 371.421 80.184 371.558 80.752 371.742 80.022 372.092 81.068 375.409 80.046 376.538 79.309 377.529 78.264 377.806 77.19 377.138 78.633 375.8 79.073 373.254 79.021 371.32ZM72.982 374.995C72.003 376.445 70.474 375.723 69.285 374.961 70.012 373.99 70.396 372.739 70.547 371.533 71.695 371.292 72.861 371.132 74.033 371.067 73.553 372.321 73.748 373.861 72.982 374.995ZM84.848 375.169C84.909 375.269 84.978 375.354 85.052 375.428 84.179 376.528 83.1 377.027 81.705 376.693 82.35 375.14 82.154 372.975 81.087 371.859 82.185 372.204 82.989 373.036 83.94 373.62 84.232 374.143 84.534 374.659 84.848 375.169ZM82.353 370.48C76.448 368.209 68.008 369.155 62.926 372.976 58.899 368.329 56.359 362.565 54.082 356.921 62.055 353.662 71.028 355.507 78.77 358.546 79.455 362.657 80.628 366.681 82.353 370.48ZM97.37 354.271C97.364 354.292 97.296 354.577 97.249 354.792 95.933 354.937 94.637 354.565 93.403 354.145 91.589 353.522 89.799 352.82 87.994 352.182 88.245 350.6 88.059 349.085 88.11 347.517 88.481 348.111 88.824 348.792 89.483 349.098 89.477 349.095 89.424 349.018 89.434 349.019 89.709 349.349 90.197 349.542 90.651 349.462 92.328 351.941 95.28 352.263 97.821 353.359 97.607 353.601 97.473 353.918 97.37 354.271ZM130.047 358.294C130.223 358.407 130.424 358.479 130.63 358.506 130.362 359.735 130.425 361.211 129.575 362.199 129.359 362.412 129.237 362.656 129.19 362.906 125.637 363.912 122.032 364.962 118.289 364.763 112.683 364.557 106.629 362.892 102.624 358.789 103.146 358.083 102.845 356.615 102.74 355.767 105.034 356.982 107.328 358.202 109.442 359.718 109.814 360.349 110.481 360.854 111.143 361.279 111.216 361.474 111.424 361.582 111.625 361.579 113.842 363.111 116.578 363.637 119.206 363.049 120.965 362.727 122.93 362.447 124.224 361.087 125.797 361.71 129.421 360.396 128.855 358.41 129.249 358.47 129.659 358.383 130.047 358.294ZM123.556 356.687C122.378 355.206 120.294 355.095 118.933 353.929 119.607 353.576 120.304 353.271 121.021 353.015 123.156 354.771 125.434 356.401 127.358 358.396 127.417 358.475 127.626 358.738 127.561 358.85 127.476 358.994 127.001 359.077 126.853 359.133 126.217 359.374 125.561 359.6 124.875 359.628 124.938 358.529 124.259 357.474 123.556 356.687ZM121.269 356.812C123.191 357.786 124.462 360.069 121.556 360.739 119.613 361.315 117.313 361.87 115.306 361.362 114.28 361.1 113.337 360.614 112.458 360.031 113.595 357.769 115.603 356 117.706 354.639 118.312 356.002 120.031 356.206 121.269 356.812ZM124.109 352.221C124.307 352.188 124.516 352.161 124.727 352.13 127.178 353.356 129.012 353.491 129.313 356.671 129.193 356.698 129.069 356.724 128.956 356.771 128.639 355.871 128.061 354.962 127.532 354.272 126.888 353.432 126.076 352.797 125.097 352.395 124.727 352.243 124.524 352.819 124.835 353.017 126.047 353.796 126.803 355.091 127.202 356.451 125.538 355.053 123.769 353.719 121.819 352.751 122.569 352.525 123.338 352.351 124.109 352.221ZM112.698 344.466C115.465 347.115 118.749 349.118 122.148 350.859 117.747 352.029 113.116 354.831 111.442 359.28 108.786 357.225 105.759 355.687 102.775 354.154 103.602 349.064 107.722 345.426 112.698 344.466ZM111.287 343.031C106.228 344.184 102.034 348.411 101.846 353.691 100.326 352.959 98.814 352.2 97.219 351.642 97.954 347.216 102.313 344.557 106.08 342.902 107.294 342.347 108.626 341.955 109.744 341.216 110.234 341.84 110.748 342.446 111.287 343.031ZM108.867 340.043C103.245 340.737 95.708 344.89 96.191 351.319 94.401 350.836 92.632 350.074 91.556 348.52 91.612 348.296 91.561 348.182 91.54 347.952 91.617 347.312 91.274 346.791 91.003 346.244 89.673 344.065 89.729 342.105 90.066 339.686 94.341 342.647 98.035 338.591 101.5 336.453 102.853 335.599 104.507 335.486 105.978 335.045 106.785 336.801 107.753 338.474 108.867 340.043ZM117.392 275.335C116.095 290.395 113.898 305.603 107.71 319.518 106.083 323.827 103.634 328.45 104.777 333.161 102.03 333.389 99.794 334.869 97.713 336.515 95.747 338.182 92.353 340.139 90.38 337.472 90.597 336.141 91.057 334.884 91.453 333.6 92.867 328.948 93.665 324.106 93.863 319.249 93.87 315.832 93.977 312.232 92.761 308.991 100.062 296.255 107.259 283.158 117.697 272.68 117.58 273.564 117.473 274.448 117.392 275.335ZM122.26 259.025C122.308 259.278 122.418 259.478 122.571 259.63 122.213 262.926 120.39 265.833 118.343 268.294 117.228 269.596 116.002 270.815 114.813 272.04 106.758 280.031 100.898 289.89 95.138 299.58 87.472 312.435 80.468 326.207 78.55 341.224 75.638 338.267 71.751 336.881 67.784 336.065 64.067 335.502 58.604 333.576 59.436 328.877 64.928 324.034 66.449 316.498 68.58 309.822 70.624 303.43 72.849 297.108 75.573 290.972 81.045 278.42 87.847 266.215 97.767 256.629 98.998 256.344 99.524 254.895 98.936 253.83 97.531 251.132 96.051 248.482 94.538 245.844 93.184 243.639 92.143 241.163 90.303 239.303 98.399 233.634 107.78 229.667 117.573 228.153 119.494 238.387 120.695 248.74 122.26 259.025ZM122.01 226.523C121.593 228.163 121.175 229.8 120.738 231.434 120.329 229.092 119.909 226.753 119.472 224.411 120.419 224.629 121.378 224.854 122.346 225.034 122.218 225.553 122.125 226.076 122.01 226.523ZM207.933 37.623C207.471 37.844 206.404 38.054 206.237 37.304 206.279 36.445 207.318 35.627 207.782 34.968 208.15 35.727 208.866 36.186 209.636 36.278 209.129 36.799 208.605 37.301 207.933 37.623ZM213.94 30.635C213.677 32.274 212.722 33.892 211.399 34.901 211.13 34.888 210.891 35.048 210.699 35.231 210.699 35.231 210.698 35.231 210.698 35.232 209.968 35.493 208.591 35.298 208.706 34.307 211.235 33.933 212.934 31.627 213.898 29.42 213.96 29.82 213.985 30.225 213.94 30.635ZM217.262 9.785C216.356 11.214 214.786 12.314 213.522 13.418 212.167 14.598 210.795 15.759 209.433 16.932 208.228 17.97 206.783 18.924 206.048 20.37 205.828 20.963 206.416 21.185 206.884 20.904 208.377 20.917 209.866 20.941 211.318 21.366 211.974 21.54 212.877 21.671 213.206 22.318 213.859 23.836 213.825 25.602 213.508 27.195 213.226 28.421 212.733 29.651 211.982 30.694 211.307 31.655 210.304 32.762 209.113 33.056 208.149 33.294 208.192 32.568 208.396 31.877 208.599 31.179 208.878 30.493 209.183 29.836 209.642 28.847 210.528 27.821 210.658 26.723 210.87 25.106 208.841 24.667 209.207 25.479 210.064 26.392 208.827 27.759 208.391 28.618 207.725 30.157 206.344 32.241 207.44 33.844 207.01 34.255 206.607 34.689 206.226 35.146 204.649 34.085 201.967 36.9 200.158 35.776 200.058 35.166 199.093 34.571 198.622 35.171 195.221 39.115 191.642 42.903 188.165 46.778 182.058 53.899 175.232 60.569 170.349 68.628 159.082 73.96 147.468 78.522 135.748 82.73 135.304 77.686 134.911 72.538 133.281 67.712 141.664 66.131 149.397 62.202 156.941 58.371 159.83 56.683 163.303 55.601 165.403 52.866 168.836 49.324 172.534 46.067 176.663 43.28 180.756 40.354 184.361 36.84 188.195 33.598 190.055 32.024 191.959 30.652 193.473 28.719 194.837 26.875 196.271 25.088 197.858 23.429 200.619 19.966 204.235 17.45 207.671 14.723 209.586 13.165 211.501 11.594 213.344 9.95 214.716 8.725 216.43 7.471 217.491 5.9 217.764 7.19 217.963 8.616 217.262 9.785Z" class="MsftOfcResponsive_Fill_000000" fill="#000000"/><path d="M201.966 25.228C201.202 24.451 200.95 23.522 200.746 22.488 200.742 22.491 200.736 22.494 200.732 22.497 199.562 21.003 199.126 25.082 201.989 26.737 203.082 27.528 206.638 28.357 206.333 30.003 205.986 31.533 204.292 32.314 202.836 32.331 200.87 32.379 199.173 31.235 197.786 29.956 197.586 29.772 197.194 29.949 197.297 30.241 198.393 33.334 202.765 34.108 205.396 32.605 206.665 31.879 208.156 30.158 207.24 28.619 206.084 26.801 203.487 26.583 201.966 25.228Z" class="MsftOfcResponsive_Fill_000000" fill="#000000"/><g><path d="M88.42 169.544C86.916 173.375 85.209 177.242 83.047 180.752 82.168 182.18 81.157 183.519 79.893 184.631 79.303 185.15 78.646 185.549 77.974 185.951 77.192 186.419 76.384 186.653 75.891 187.454 75.649 187.847 75.814 188.364 76.191 188.599 77.838 189.627 80.192 187.981 81.468 186.942 82.97 185.721 84.182 184.151 85.215 182.525 87.619 178.741 89.277 174.406 90.643 170.156 90.834 169.563 90.42 168.897 89.837 168.737 89.184 168.559 88.648 168.962 88.42 169.544L88.42 169.544Z" fill="#FFFFFF"/><path d="M131.36 178.265C130.267 176.554 129.329 174.75 128.407 172.943 127.591 171.345 126.985 169.665 126.287 168.018 126.468 167.313 125.638 166.687 124.946 166.804 123.336 167.077 123.887 169.04 124.167 170.063 124.49 171.241 124.968 172.378 125.457 173.496 126.463 175.797 127.831 177.824 129.436 179.75 130.328 180.819 132.104 179.429 131.36 178.265Z" fill="#FFFFFF"/><path d="M111.697 170.661C113.747 170.661 113.75 167.476 111.697 167.476 109.647 167.476 109.644 170.661 111.697 170.661L111.697 170.661Z" fill="#FFFFFF"/></g></g></g></svg>