<svg viewBox="0 0 32 33" xmlns="http://www.w3.org/2000/svg" xmlns:xlink="http://www.w3.org/1999/xlink" id="caa95e16-de5b-47a1-9330-b271eedaf57f" overflow="hidden"><style>
.MsftOfcResponsive_Fill_000000 {
 fill:#000000; 
}
</style>
<g id="contempt"><path d="M18.795 29.256C18.239 29.262 17.686 29.165 17.164 28.972 16.431 28.694 15.746 28.083 15.5 27.489 15.267 27.038 15.434 26.484 15.877 26.236 15.929 26.204 15.989 26.188 16.05 26.19 16.199 26.192 16.343 26.249 16.452 26.35 16.802 26.724 17.377 27.171 18.079 27.163 18.749 27.149 19.214 26.841 19.716 26.558 19.987 26.388 20.284 26.262 20.594 26.183 21.189 26.068 21.816 26.268 22.277 26.651 22.454 26.79 22.578 26.984 22.631 27.202 22.661 27.389 22.608 27.579 22.485 27.724 21.805 28.66 20.109 29.283 18.795 29.256Z" class="MsftOfcResponsive_Fill_000000" fill="#000000"/><path d="M19.578 22.684C18.323 22.729 13.801 21.182 15.622 19.493 15.781 19.352 15.986 19.273 16.198 19.268 16.357 19.269 16.512 19.317 16.644 19.405 17.754 20.299 19.826 21.859 21.161 20.406 22.463 18.825 20.43 16.856 19.521 16.405 19.396 16.298 19.355 16.123 19.419 15.972 19.495 15.736 19.717 15.578 19.965 15.584 21.838 15.727 23.34 17.478 23.105 19.359 22.998 21.167 21.424 22.761 19.578 22.684L19.578 22.684Z" class="MsftOfcResponsive_Fill_000000" fill="#000000"/><path d="M8.32 16.937C6.414 16.934 4.06 14.731 4.24 12.374 4.263 12.244 4.345 12.132 4.462 12.071 4.727 11.898 5.183 11.967 5.227 12.329 5.34 12.928 5.641 13.475 6.084 13.892 7.874 15.701 9.443 15.254 9.862 12.82 9.904 12.51 10.069 12.231 10.319 12.043 10.575 11.859 10.902 11.797 11.21 11.852 11.534 11.902 11.82 12.088 11.999 12.362 12.164 12.637 12.18 12.977 12.043 13.266 11.968 13.444 11.896 13.626 11.827 13.804L11.827 13.805C11.321 15.383 10.148 16.993 8.32 16.937Z" class="MsftOfcResponsive_Fill_000000" fill="#000000"/><path d="M24.794 14.802C23.839 14.804 22.91 14.256 22.225 13.331 22.028 13.056 21.91 12.731 21.884 12.394 21.873 12.124 21.921 11.815 22.349 11.386 22.482 11.343 22.633 11.378 22.739 11.469 22.913 11.636 23.059 11.829 23.174 12.041L23.209 12.098C23.472 12.559 23.93 12.894 24.45 13.002 25.23 13.146 25.903 12.455 26.035 11.729 26.102 11.401 26.378 11.147 26.692 11.052 26.933 10.972 27.198 11.004 27.413 11.138 27.79 11.327 27.946 11.788 27.865 12.187 27.597 13.624 26.276 14.806 24.794 14.802Z" class="MsftOfcResponsive_Fill_000000" fill="#000000"/><path d="M1.866 8.563C1.858 8.564 1.85 8.564 1.842 8.564 1.779 8.566 1.723 8.526 1.703 8.466 1.686 8.408 1.711 8.347 1.762 8.317 1.995 8.159 2.22 7.996 2.439 7.837 2.999 7.4 3.604 7.025 4.244 6.717 5.256 6.26 6.322 5.919 7.398 5.645 8.927 5.239 10.712 4.816 12.393 5 12.657 5.023 12.908 5.122 13.117 5.285 13.321 5.454 13.452 5.696 13.482 5.96 13.55 6.463 13.225 7.089 12.688 7.176 10.887 7.458 9.052 7.381 7.252 7.673 6.656 7.771 6.054 7.887 5.473 8L5.471 8C4.508 8.214 3.523 8.323 2.544 8.441 2.461 8.451 2.16 8.503 1.866 8.563Z" class="MsftOfcResponsive_Fill_000000" fill="#000000"/><path d="M28.694 8.058C28.322 8.033 27.957 7.941 27.617 7.785 25.859 7.076 23.988 6.678 22.093 6.921 21.401 6.954 20.628 6.607 20.472 5.877 20.407 5.538 20.52 5.189 20.772 4.953 22.964 3.142 27.466 4.833 28.859 6.948 29.032 7.205 29.114 7.513 29.093 7.822 29.091 7.922 29.024 8.01 28.928 8.039 28.85 8.052 28.772 8.059 28.694 8.058L28.694 8.058Z" class="MsftOfcResponsive_Fill_000000" fill="#000000"/></g></svg>