<svg viewBox="0 0 76 83" xmlns="http://www.w3.org/2000/svg" xmlns:xlink="http://www.w3.org/1999/xlink" id="df1c7440-032f-4774-a5cf-341b89fee73b" overflow="hidden"><style>
.MsftOfcResponsive_Fill_000000 {
 fill:#000000; 
}
</style>
<g id="Tousled"><path d="M18.232 46.436C18.232 46.436 6.061 46.925 7.732 54.986 9.603 64.01 18.061 62.645 18.061 62.645L21.107 66.217C21.107 66.217 31.433 80.536 48.187 79.596 48.187 79.596 56.822 78.905 61.802 70.025 65.01 64.305 65.437 57.896 65.282 54.245 64.88 44.804 61.824 35.888 61.824 35.888 61.824 35.888 53.22 19.625 33.3 22.025 17.466 23.933 19.08 41.165 18.232 46.436Z" fill="#FFFFFF"/><g><path d="M11.77 50.853C11.289 51.067 11.421 51.88 11.917 51.981 12.369 52.073 12.772 52.035 13.192 52.263 13.633 52.502 14.019 52.884 14.335 53.27 14.622 53.62 14.863 54.023 15.027 54.445 15.212 54.919 15.256 55.262 15.653 55.614 15.994 55.916 16.459 55.85 16.713 55.477 17.473 54.361 16.163 52.714 15.361 51.949 14.495 51.12 12.967 50.321 11.77 50.853Z" class="MsftOfcResponsive_Fill_000000" fill="#000000"/><path d="M73.953 36.837C73.504 36.075 72.969 35.372 72.526 34.603 71.056 31.983 70.262 29.041 68.644 26.495 67.065 24.012 65.208 21.634 62.893 19.78 64.438 19.999 65.935 20.553 67.509 20.556 68.07 20.557 68.172 19.846 67.814 19.586 63.306 10.457 52.076 5.176 42.128 6.779 42.472 6.345 42.758 5.853 43.007 5.422 43.532 4.491 44.152 3.514 44.193 2.424 44.409 2.221 44.275 1.832 43.957 1.822 43.113 1.797 42.174 2.145 41.366 2.368 38.141 3.26 35.012 4.456 31.828 5.477 28.269 6.629 24.879 7.926 21.958 10.276 22.232 9.721 22.178 9.024 22.279 8.421 22.401 7.698 22.587 6.991 22.813 6.295 23.019 5.621 21.956 5.451 21.826 6.121 19.925 7.735 18.76 10.006 17.776 12.258 17.708 12.419 17.642 12.691 17.511 12.746 17.414 12.787 16.985 12.684 16.907 12.675 16.45 12.622 15.998 12.593 15.538 12.578 15.259 12.569 15.102 12.792 15.093 13.021 5.719 17.307 3.009 33.687 2.527 42.985 2.465 44.168 2.227 45.811 2.75 46.919 2.744 46.961 2.737 47.003 2.731 47.046 2.686 47.387 3.198 47.478 3.35 47.214 4.086 45.939 4.679 44.587 5.493 43.356 4.876 46.828 6.143 50.248 6.802 53.641 6.555 55.751 7.341 57.84 8.802 59.363 9.668 61.742 10.73 64.064 11.847 66.331 12.537 67.731 13.261 69.12 14.078 70.451 14.698 71.462 15.394 72.412 16.386 73.087 16.634 73.256 16.925 73.037 16.953 72.784 17.336 72.57 17.393 72.078 17.472 71.605 17.541 71.196 17.631 70.756 17.673 70.318 17.974 71.095 18.323 71.848 18.732 72.576 19.134 73.293 19.647 74.452 20.432 74.803 20.58 74.869 20.739 74.819 20.814 74.704 21.027 74.699 21.251 74.56 21.282 74.291 21.462 72.631 21.858 71.013 22.421 69.442 23.117 70.218 23.843 70.967 24.602 71.681 25.689 72.704 26.839 73.972 28.342 74.242 28.812 74.327 29.181 73.885 28.955 73.444 28.291 72.149 26.962 71.362 25.907 70.375 23.081 67.747 20.73 64.661 18.685 61.399 18.664 61.354 18.637 61.312 18.606 61.274 18.315 60.814 17.995 60.331 17.559 60.069 17.218 59.864 16.825 60.132 16.805 60.502 16.796 60.672 16.816 60.845 16.856 61.017 14.164 61.1 11.518 59.609 9.817 57.58 7.969 55.295 8.304 51.444 11.01 49.948 11.724 49.553 12.521 49.315 13.334 49.245 13.791 49.206 14.254 49.205 14.71 49.26 15.23 49.323 15.782 49.27 16.292 49.357 17.122 51.724 18.204 54.306 20.488 55.594 20.87 55.803 21.491 55.723 21.689 55.279 22.188 54.164 22.166 52.933 21.91 51.751 22.402 52.305 22.957 52.816 23.607 53.266 23.997 53.536 24.674 53.183 24.614 52.688 24.251 49.699 24.402 46.626 25.889 43.942 27.652 40.926 29.126 39.264 29.076 35.531 29.929 36.581 30.839 37.588 31.738 38.597 32.219 39.137 32.989 38.553 32.866 37.94 32.25 34.984 31.306 32.089 31.371 29.032 34.323 32.196 34.174 37.164 35.009 41.206 35.105 41.743 36.013 41.892 36.235 41.366 37.607 38.119 38.354 34.455 38.399 30.873 39.17 32.373 39.886 33.904 40.478 35.473 40.748 36.189 41.826 36.113 41.85 35.287 41.9 33.53 41.941 31.769 41.94 30.008 46.501 36.316 54.513 38.552 61.806 39.853 62.058 41.751 62.629 43.594 63.078 45.451 63.98 49.144 64.408 52.821 64.226 56.627 63.911 64.073 61.421 72.177 54.733 76.261 51.324 78.529 47.757 78.924 43.759 78.789 42.372 78.749 41.012 78.536 39.629 78.463 39.028 78.431 39 79.259 39.496 79.447 41.842 80.338 44.597 80.452 47.085 80.366 53.478 80.24 59.373 76.149 62.463 70.667 64.409 67.149 65.406 63.173 65.859 59.202 66.296 55.372 66.211 51.428 65.469 47.639 64.977 45.106 64.183 42.644 63.705 40.108 65.741 40.323 67.793 40.334 69.794 39.963 70.262 39.876 70.181 39.23 69.794 39.105 69.313 38.471 68.456 38.053 67.85 37.577 66.734 36.679 65.686 35.765 64.859 34.561 66.973 35.629 68.987 36.572 71.267 37.145 71.99 37.334 72.916 37.612 73.654 37.345 73.898 37.333 74.106 37.098 73.953 36.837Z" class="MsftOfcResponsive_Fill_000000" fill="#000000"/></g></g></svg>