<svg viewBox="0 0 32 33" xmlns="http://www.w3.org/2000/svg" xmlns:xlink="http://www.w3.org/1999/xlink" id="759fd8b6-399e-46cf-b0b6-fd365fe16f9c" overflow="hidden"><style>
.MsftOfcResponsive_Fill_000000 {
 fill:#000000; 
}
</style>
<g id="face_Eating_Happy" transform="translate(823 413)"><path d="M-808.093-382.185C-808.585-382.185-809.066-382.554-809.263-383.082-809.35-383.308-809.37-383.554-809.322-383.792-809.263-384.053-809.119-384.288-808.913-384.458L-808.876-384.489C-808.108-385.11-807.973-386.79-808.01-387.592-808.037-388.177-808.143-388.755-808.325-389.312L-808.363-389.422C-808.416-389.571-808.948-390.886-809.194-390.886-809.21-390.886-809.225-390.88-809.237-390.869L-809.247-390.858C-809.266-390.833-809.295-390.818-809.326-390.817-809.364-390.818-809.398-390.84-809.416-390.873-809.436-390.909-809.435-390.954-809.412-390.989-809.322-391.18-809.134-391.306-808.924-391.317-808.44-391.317-807.871-390.624-807.48-390.043-807.129-389.53-806.832-388.981-806.595-388.406-806.428-387.894-806.316-387.366-806.259-386.83-805.923-386.755-805.579-386.718-805.234-386.718-804.909-386.719-804.585-386.75-804.266-386.811-803.558-386.947-803.044-387.259-802.499-387.591-802.281-387.724-802.055-387.861-801.809-387.992-801.662-388.07-801.499-388.11-801.333-388.109-800.849-388.09-800.406-387.829-800.156-387.414-799.987-387.14-799.935-386.809-800.013-386.497-800.097-386.19-800.267-385.912-800.502-385.697-800.876-385.359-801.326-385.116-801.814-384.987-802.329-384.839-802.863-384.765-803.399-384.767-803.728-384.766-804.056-384.795-804.379-384.856-805.04-384.982-805.669-385.239-806.229-385.613-806.23-385.593-806.231-385.573-806.232-385.553-806.234-385.505-806.237-385.455-806.241-385.406L-806.251-385.286C-806.293-384.765-806.396-384.25-806.557-383.753-806.703-383.261-806.98-382.819-807.359-382.473-807.559-382.292-807.821-382.19-808.093-382.185Z" class="MsftOfcResponsive_Fill_000000" fill="#000000"/><path d="M-802.653-392.499-802.653-392.499C-803.293-392.509-803.926-392.637-804.52-392.875-805.304-393.19-806.043-393.609-806.716-394.121-806.872-394.243-806.981-394.415-807.022-394.609-807.058-394.792-807.043-394.981-806.978-395.156-806.904-395.364-806.777-395.548-806.608-395.69-806.449-395.831-806.244-395.91-806.032-395.915-805.873-395.914-805.718-395.866-805.586-395.778-805.539-395.742-805.49-395.705-805.44-395.665L-805.436-395.662C-804.673-395.072-803.52-394.181-802.414-394.181-801.901-394.18-801.413-394.397-801.069-394.777-800.718-395.231-800.581-395.815-800.692-396.378-800.947-397.623-802.3-398.53-802.709-398.778-802.834-398.885-802.875-399.06-802.811-399.211-802.735-399.447-802.513-399.605-802.265-399.599-802.222-399.599-802.179-399.595-802.136-399.588-801.63-399.507-801.144-399.332-800.704-399.07-800.326-398.842-799.998-398.54-799.741-398.182-799.263-397.494-799.045-396.658-799.126-395.824-799.193-394.962-799.555-394.15-800.151-393.523-800.807-392.851-801.713-392.48-802.653-392.499Z" class="MsftOfcResponsive_Fill_000000" fill="#000000"/><path d="M-817.41-400.444C-817.478-400.443-817.541-400.482-817.571-400.543-817.779-400.927-817.882-401.358-817.871-401.794-817.857-402.217-817.752-402.632-817.563-403.011-817.292-403.556-816.9-404.031-816.417-404.401-815.947-404.774-815.395-405.028-814.806-405.142-814.572-405.183-814.335-405.204-814.098-405.204-813.663-405.204-813.231-405.135-812.817-405.001-812.4-404.866-812.007-404.669-811.649-404.416L-811.58-404.366C-811.1-404.025-810.692-403.593-810.377-403.096-810.042-402.522-809.987-401.977-810.216-401.475-810.356-401.199-810.647-401.033-810.956-401.053-811.115-401.052-811.272-401.089-811.414-401.161-811.766-401.346-811.956-401.671-812.158-402.016-812.305-402.307-812.505-402.569-812.748-402.787-813.181-403.138-813.719-403.334-814.277-403.345-814.338-403.345-814.399-403.342-814.459-403.337-816.024-403.195-816.848-401.557-817.2-400.594-817.232-400.506-817.316-400.447-817.41-400.444Z" class="MsftOfcResponsive_Fill_000000" fill="#000000"/><path d="M-794.085-400.822C-794.322-400.821-794.554-400.891-794.752-401.022-794.96-401.163-795.109-401.374-795.173-401.616-795.215-401.769-795.244-401.918-795.272-402.062-795.35-402.455-795.423-402.825-795.726-403.175-796.035-403.543-796.488-403.758-796.968-403.766-797.003-403.766-797.038-403.765-797.073-403.762-797.647-403.709-798.182-403.45-798.579-403.033-798.744-402.855-798.892-402.662-799.02-402.456-799.163-402.22-799.336-402.004-799.536-401.814-799.58-401.776-799.635-401.754-799.693-401.753-799.749-401.753-799.803-401.775-799.844-401.814-800.208-402.15-800.219-402.664-800.165-403.037-800.094-403.479-799.933-403.902-799.692-404.279-799.4-404.723-799.015-405.099-798.564-405.38-798.113-405.661-797.601-405.832-797.072-405.878-796.993-405.884-796.913-405.888-796.832-405.888-795.699-405.888-794.464-405.245-793.686-404.249-793.043-403.426-792.81-402.492-793.028-401.617-793.085-401.375-793.229-401.163-793.432-401.02-793.626-400.889-793.853-400.82-794.085-400.822L-794.085-400.822Z" class="MsftOfcResponsive_Fill_000000" fill="#000000"/><path d="M-819.978-405.008C-820.059-405.006-820.136-405.038-820.19-405.098-820.749-405.73-820.52-406.613-820.229-407.242-819.891-407.948-819.421-408.583-818.844-409.113-817.757-410.075-815.916-411.047-814.254-411.047-813.889-411.05-813.526-410.996-813.178-410.888-812.884-410.788-812.63-410.595-812.455-410.338-812.276-410.086-812.17-409.79-812.149-409.481-812.101-408.981-812.38-408.508-812.841-408.309-813.516-408-814.255-407.905-814.969-407.813-815.703-407.718-816.462-407.62-817.163-407.293-817.859-406.969-818.348-406.616-818.7-406.184-818.764-406.106-818.827-406.024-818.893-405.938-819.161-405.59-819.437-405.23-819.807-405.049-819.86-405.022-819.918-405.008-819.978-405.008Z" class="MsftOfcResponsive_Fill_000000" fill="#000000"/><path d="M-793.808-406.395C-794.005-406.396-794.199-406.449-794.368-406.55-794.74-406.764-795-407.113-795.251-407.45-795.42-407.692-795.611-407.917-795.823-408.123-796.265-408.522-796.774-408.838-797.327-409.057-797.925-409.296-798.562-409.422-799.205-409.427L-799.242-409.427C-799.541-409.417-799.838-409.379-800.13-409.313-800.322-409.276-800.52-409.238-800.712-409.217-800.708-409.21-800.708-409.202-800.712-409.196-800.723-409.179-800.764-409.17-800.831-409.17-800.986-409.174-801.14-409.2-801.287-409.247-801.463-409.322-801.448-409.543-801.396-409.664-801.269-409.964-800.982-410.242-800.543-410.489-799.752-410.921-798.864-411.143-797.963-411.134-797.567-411.133-797.172-411.098-796.782-411.03-795.909-410.88-795.082-410.531-794.364-410.012L-794.283-409.952C-793.563-409.41-792.613-408.569-792.663-407.528-792.677-407.222-792.806-406.933-793.026-406.72-793.237-406.514-793.516-406.398-793.808-406.395L-793.808-406.395Z" class="MsftOfcResponsive_Fill_000000" fill="#000000"/></g></svg>