<svg viewBox="0 0 151 324" xmlns="http://www.w3.org/2000/svg" xmlns:xlink="http://www.w3.org/1999/xlink" id="b9ac8525-96fc-45dc-9306-50e9a5b3ccb8" overflow="hidden"><style>
.MsftOfcResponsive_Fill_000000 {
 fill:#000000; 
}
</style>
<g><path d="M69.649 5.497C69.649 5.497 85.775 3.777 94.441 18.634L97.5 22.509 99.774 26.177C99.774 26.177 112.87 28.47 114.493 45.802 116.048 62.402 116.718 70.315 116.718 70.315L115.841 71.939C115.841 71.939 123.022 81.706 123.434 89.134L124.672 95.599C124.672 95.599 128.634 101.349 128.771 103.798 128.908 106.247 126.904 109.003 126.904 109.003 125.982 110.609 124.134 111.444 122.319 111.074L117.557 110.569C117.557 110.569 112.788 111.378 110.048 109.386 109.819 109.22 109.509 109.44 109.59 109.711 110.651 113.29 113.823 125.499 111.741 137.417L110.008 155.52C110.008 155.52 110.338 182.372 110.228 185.673 110.118 188.974 109.017 197.558 109.017 199.759 109.017 201.96 110.117 214.065 110.007 219.678 109.897 225.29 107.311 245.154 108.356 249.281 109.401 253.408 116.043 257.221 116.83 261.606 117.6 265.898 110.667 267.989 110.337 270.63 110.007 273.271 110.832 276.71 114.106 280.039 116.179 282.147 114.931 282.928 116.83 285.266 119.389 288.419 127.174 293.409 130.916 294.73 134.658 296.051 141.811 297.481 142.966 298.912 144.121 300.343 148.854 307.496 138.289 309.146 138.289 309.146 125.441 311.512 120.681 310.687 115.921 309.862 114.986 309.146 111.437 308.816 107.888 308.486 105.99 309.669 102.633 309.586 99.277 309.503 88.877 308.706 87.887 304.744 86.897 300.782 89.978 297.811 89.978 297.811 89.978 297.811 91.274 294.815 89.978 293.519 89.428 292.969 88.657 293.354 87.887 292.639 87.117 291.924 80.679 250.106 80.101 237.698 79.523 225.29 79.413 218.577 79.523 208.783 79.611 200.982 76.905 190.876 75.801 187.087 75.673 186.649 75.051 186.657 74.934 187.098L69.646 207.022 62.218 239.899 59.921 256.584C59.624 259.263 59.168 274.76 59.054 277.452L57.816 289.42C57.816 289.42 57.541 295.253 64.006 303.093 64.006 303.093 72.067 310.301 71.709 312.997 71.351 315.693 64.143 317.757 55.752 317.619 55.752 317.619 45.7 318.43 43.647 315.418 41.996 312.997 33.413 310.576 33.413 310.576 33.413 310.576 30.249 308.843 30.442 305.074 30.635 301.305 32.423 299.792 33.303 296.71 34.183 293.629 33.633 288.456 33.633 288.456 33.633 288.456 28.818 286.915 29.781 279.762 30.744 272.609 32.587 269.583 33.055 264.933 33.523 260.283 32.615 245.234 33.743 235.193 34.871 225.151 37.897 217.86 39.135 211.643 40.373 205.425 41.171 195.328 41.171 195.328L38.695 159.425 37.925 141.432C37.925 141.432 25.82 137.91 21.308 135.159 16.796 132.408 16.311 129.619 15.916 126.795L11.077 86.85C11.077 86.85 6.803 81.599 5.795 78.596 4.786 75.593 6.058 73.699 6.83 72.129 6.83 72.129 13.609 61.923 13.664 59.97 13.719 58.017 13.306 57.659 13.609 55.376 13.912 53.093 17.694 47.658 17.694 47.658 19.04 45.559 21.362 44.289 23.856 44.289L26.594 44.289 37.249 31.433C38.547 29.867 40.319 28.765 42.298 28.294L50.254 26.177C50.254 26.177 47.072 23.435 53.262 15.319L55.61 12.604C56.268 11.727 57.623 11.336 58.618 11.797L63.059 14.815C63.625 15.2 64.399 14.87 64.512 14.195 64.849 12.185 65.826 8.878 68.595 9.083 69.418 9.144 69.649 5.497 69.649 5.497Z" fill="#FFFFFF"/><path d="M29.482 282.13C28.354 292.97 56.581 290.549 57.544 289.558 58.507 288.567 58.947 277.233 58.947 277.233L59.497 260.176C59.497 260.176 59.497 254.013 61.368 243.999 63.239 233.985 66.32 222.87 66.32 222.87 66.32 222.87 68.081 214.837 69.842 206.143 71.603 197.449 75.026 187.866 75.026 187.866 75.15 187.39 75.82 187.374 75.966 187.844 77.159 191.702 79.526 200.421 79.554 205.098 79.581 209.725 80.35 263.063 87.92 292.104 88.134 292.923 89.007 293.378 89.8 293.082 89.8 293.082 91.191 291.43 96.253 290.55 101.315 289.67 113.2 289.78 115.291 281.636 115.291 281.636 108.908 275.914 110.119 271.071 111.234 266.613 117.712 266.339 116.419 261.222 115.056 255.828 109.899 254.564 108.798 249.722 107.485 243.943 108.991 232.279 108.991 232.279 108.991 232.279 111.012 216.702 109.679 209.114 108.248 200.97 110.515 184.909 110.413 178.557 110.046 155.814 111.193 140.169 111.193 140.169 111.193 140.169 91.651 145.942 67.788 142.462 58.523 141.111 48.273 139.014 39.029 132.851 39.029 132.851 36.828 148.991 40.212 172.908 40.212 172.908 41.578 199.319 40.203 204.822 38.828 210.325 34.536 225.181 33.884 230.408 33.233 235.635 33.086 242.458 33.673 252.583 34.26 262.706 30.327 274.007 29.482 282.13Z" fill="#FFFFFF"/><g><path d="M26.483 76.469C26.483 76.469 30.775 82.778 33.306 85.273 35.314 87.252 39.424 90.386 41.036 91.596 41.327 91.814 41.743 91.625 41.77 91.262 41.928 89.081 42.31 83.082 42.073 78.89 41.829 74.563 40.902 67.906 40.595 65.777 40.552 65.477 40.198 65.339 39.962 65.53L26.483 76.469Z" fill="#FFFFFF"/><path d="M13.314 56.147 13.879 59.486C13.886 59.839 14.338 59.98 14.544 59.694L26.09 44.99C26.37 44.634 26.092 44.116 25.64 44.151 23.792 44.292 20.123 44.934 17.927 47.729 14.901 51.58 13.314 56.147 13.314 56.147Z" fill="#FFFFFF"/><path d="M12.381 88.42C12.005 87.89 11.174 88.185 11.208 88.833 11.4 92.494 12.748 100.08 13.772 108.199 14.756 115.998 15.395 124.29 16.853 130.043 18.395 136.125 33.684 140.491 37.102 141.433 37.461 141.532 37.824 141.291 37.874 140.922L38.863 133.125 38.093 131.969C38.093 131.969 41.676 108.529 40.459 107.924 30.615 103.025 16.263 93.897 12.381 88.42Z" fill="#FFFFFF"/><path d="M49.667 21.335C50.107 19.134 54.656 13.705 56.93 11.137L63.571 15.058C63.966 15.291 63.39 16.888 62.946 17.006L56.784 17.52C56.289 17.561 55.91 17.98 55.919 18.477L55.96 20.716C55.968 21.151 56.37 21.472 56.796 21.382L60.11 20.685C60.464 20.638 61.002 20.887 60.87 21.219 60.157 23.022 64.633 34.393 69.475 34.687 69.475 34.687 76.472 70.169 66.981 86.263L61.479 85.823C61.479 85.823 57.661 76.783 58.486 69.562 59.311 62.34 59.425 52.442 59.425 52.442 59.425 52.442 59.776 44.327 58.471 37.109 57.686 32.768 55.985 28.702 54.142 27.058 51.427 24.637 50.034 25.737 50.034 25.737 50.034 25.737 49.226 23.536 49.667 21.335Z" fill="#FFFFFF"/><path d="M101.682 38.356C101.682 38.356 106.978 48.953 107.184 54.937 107.39 60.921 108.211 82.229 108.211 82.229L112.955 82.974C112.955 82.974 113.01 75.323 112.749 67.912 112.393 57.798 109.165 35.275 102.692 29.73 102.402 29.482 101.96 29.784 102.042 30.157 102.493 32.212 103.076 36.155 101.682 38.356Z" fill="#FFFFFF"/></g><g><path d="M113.696 88.088C113.669 87.801 113.974 83.972 112.981 83.741 112.683 83.708 110.886 82.807 110.529 82.732 109.898 82.56 108.533 82.168 108.747 83.3 109.096 84.754 108.869 85.83 109.195 87.43 109.21 88.362 109.476 89.228 109.495 90.175 109.505 90.495 109.793 90.769 110.113 90.763 112.965 90.512 113.937 91.72 113.696 88.088Z" fill="#FFFFFF"/><path d="M66.981 87.373C66.78 86.634 63.024 86.635 62.133 86.298 61.585 86.209 61.061 86.677 60.622 87.003 60.105 88.167 60.383 91.201 60.394 91.367 60.239 94.78 61.237 93.474 63.679 93.886 64.505 93.95 65.361 94.015 66.216 94.014 67.11 93.959 67.08 88.669 66.981 87.373Z" fill="#FFFFFF"/></g><g><path d="M141.058 298.315C139.336 297.341 137.434 296.848 135.595 296.372 134.208 296.225 127.041 293.472 126.412 292.957 125.358 292.77 116.636 285.743 115.926 284.694 115.813 284.527 115.626 284.426 115.425 284.422 115.223 284.42 115.033 284.512 114.914 284.675 113.935 286.009 112.566 287.153 110.846 288.075 110.676 288.166 110.558 288.331 110.528 288.521 110.491 289.449 114.324 291.988 115.622 292.803 117.705 294.112 121.888 295.622 122.212 295.768 124.927 296.875 126.612 297.739 128.882 298.58 131.901 299.699 135.747 300.037 135.292 300.189 131.453 302.215 127.397 303.876 124.285 305.098 117.026 307.041 108.211 305.794 101.506 301.565 97.919 299.303 94.935 296.188 93.117 292.251 92.982 291.953 92.707 292.079 92.402 292.196 92.058 292.374 90.345 293.389 90.404 293.828 90.32 294.738 90.978 297.216 90.306 297.719 88.881 299.681 86.728 305.814 90.479 306.622 96.186 308.851 102.566 309.709 108.649 308.713 110.079 308.48 111.429 308.26 112.761 308.508 120.861 310.877 127.079 310.51 135.279 309.071 136.658 308.859 138.085 308.64 139.476 308.455 145.363 307.834 146.095 300.929 141.058 298.315Z" fill="#FFFFFF"/><path d="M71.01 312.04C69.582 309.987 68.25 307.702 66.438 306.379 65.082 305.422 61.194 301.311 58.748 295.313 58.646 294.953 57.67 291.636 57.826 290.761 57.796 290.356 57.332 290.081 56.963 290.255 54.253 291.446 47.426 290.219 45.96 290.586 44.933 290.843 42.523 291.177 42.769 292.127 45.222 298.291 48.895 305.223 55.52 307.626 55.589 307.651 55.617 307.737 55.583 307.802 53.887 311.048 48.315 311.709 45.556 311.642 39.314 310.454 35.426 303.767 34.258 297.703 34.157 297.058 33.416 297.077 33.306 297.731 33.127 298.6 32.734 299.596 32.318 300.651 30.666 304.629 29.807 307.919 34.196 310.025 37.219 312.092 41.259 312.449 43.817 314.759 45.212 316.159 48.398 317.7 52.424 317.338 55.127 316.945 73.601 316.339 71.01 312.04Z" fill="#FFFFFF"/></g><g><path d="M55.357 307.413C48.548 305.872 44.586 296.683 42.083 291.291 41.962 291.03 37.76 290.719 35.852 290.009 35.204 289.789 33.99 289.015 33.866 290.156 33.943 291.949 33.512 293.804 33.829 295.913 34.462 300.122 38.864 311.925 46.567 311.677 49.535 311.582 54.024 310.978 55.463 308.045 55.651 307.683 55.757 307.503 55.357 307.413Z" fill="#FFFFFF"/><path d="M133.887 301.135C134.271 300.9 134.247 300.278 133.813 300.157 127.287 298.325 113.777 293.682 110.755 288.721 110.583 288.467 110.249 288.377 109.973 288.511 107.108 289.894 104.049 290.283 100.81 290.693 98.367 291.003 95.841 291.323 93.432 292.114 93.254 292.173 93.202 292.39 93.136 292.565 95.513 298.173 101.374 302.163 107.494 304.392 115.522 307.313 124.172 305.996 131.474 301.964 131.917 301.647 133.376 301.448 133.887 301.135Z" fill="#FFFFFF"/></g><g><path d="M143.867 298.715C139.969 295.003 134.053 295.284 129.477 292.766 124.557 290.484 120.424 286.938 116.475 283.297 117.098 282.135 117.293 280.584 115.697 280.394 113.69 277.746 110.538 275.068 111.765 271.361 113.189 267.233 119.21 267.656 118.173 261.696 117.792 259.308 116.44 257.012 114.871 255.21 113.466 253.596 111.335 252.51 110.32 250.584 109.279 248.61 109.603 245.967 109.646 243.824 109.702 241.013 109.83 238.204 110.031 235.399 110.425 229.904 111.369 224.445 111.581 218.939 111.794 213.422 110.88 207.959 110.643 202.459 110.405 196.91 111.286 191.443 111.643 185.921 112.478 171.913 110.601 157.749 112.913 143.834 112.989 142.332 113.963 140.754 113.423 139.301 114.028 129.758 113.622 120.143 111.144 110.867 113.044 111.706 115.226 112.119 117.286 111.688 118.358 112.901 120.59 112.416 122.076 112.678 126.596 113.441 128.162 109.553 129.495 106.005 130.704 102.079 127.571 98.599 125.432 95.612 124.468 87.493 121.765 79.269 116.935 72.596 118.508 71.311 117.705 68.848 117.489 67.146 117.001 63.151 116.778 59.131 116.461 55.12 115.665 47.409 115.021 39.078 110.722 32.408 107.873 29.04 103.843 26.323 99.684 24.888 98.245 22.487 96.626 20.179 94.63 18.23 94.274 17.882 93.665 18.329 93.931 18.769 94.062 18.985 94.043 19.22 93.893 19.196 93.162 19.081 92.346 20.029 92.054 20.635 90.921 22.936 90.683 26.034 92.235 28.207 92.897 31.42 91.491 34.358 90.55 37.351 90.488 37.549 90.211 37.529 90.17 37.326 88.235 27.686 85.734 30.391 79.893 26.442 78.855 25.65 77.781 24.784 76.732 23.874 74.693 21.941 72.333 19.182 69.584 15.13 69.576 15.061 69.566 14.975 69.558 14.905 70.709 11.918 70.47 8.42 70.017 5.292 69.868 4.363 68.284 4.571 68.364 5.516 68.426 6.239 68.451 6.96 68.451 7.68 65.809 8.558 63.26 10.42 63.508 13.503 61.257 12.086 57.308 8.89 54.94 11.483 51.898 16.464 46.867 19.396 48.988 26.001 45.95 26.546 43.063 27.543 40.066 28.237 34.523 32.116 30.517 37.95 26.131 43.051 21.2 43.121 18.319 43.763 16.058 48.477 14.907 50.586 13.473 52.545 12.374 54.677 11.393 56.606 12.459 58.577 12.464 60.564 10.068 63.97 7.878 67.519 5.879 71.172 1.75 76.974 6.806 83.232 10.291 87.933 11.102 96.89 12.596 105.795 13.552 114.745 14.576 120.501 13.911 127.365 16.845 132.514 19.479 135.685 23.405 137.351 27.158 138.802 30.305 140.119 33.457 141.302 36.718 142.323 35.69 162.173 41.041 181.881 39.01 201.736 37.831 213.604 32.943 224.715 31.972 236.62 31.012 248.389 32.987 260.529 29.877 272.074 27.959 277.701 26.2 285.721 32.513 289.219 32.548 291.301 32.839 293.432 32.319 295.488 31.273 300.19 26.332 306.386 31.527 310.251 33.228 311.75 38.281 315.218 40.467 314.066 43.534 317.974 48.149 319.246 52.962 318.847 57.444 318.135 75.378 318.706 72.459 311.095 70.935 308.072 67.925 306.104 65.762 303.564 61.904 299.796 59.427 294.799 58.838 289.448 59.246 286.9 59.359 284.284 59.656 281.713 59.824 279.959 59.978 278.201 60.059 276.44 59.946 262.588 61.146 248.709 64.234 235.184 68.647 220.058 70.321 204.232 75.524 189.351 80.108 206.818 77.85 225.062 79.395 242.877 80.707 259.26 83.572 275.459 86.299 291.65 86.375 293.285 87.541 294.958 89.355 294.568 89.42 295.591 89.329 296.604 89.301 297.624 87.21 299.557 86.604 303.097 87.373 305.771 89.534 309.368 99.208 310.471 103.242 310.569 106.766 310.829 110.241 309.339 113.72 309.997 119.884 312.048 125.658 311.787 131.989 310.892 136.687 310.142 143.972 311.439 145.873 305.797 146.576 303.216 145.754 300.594 143.867 298.715ZM129.724 295.135C129.016 295.829 128.475 296.78 128.077 297.574 126.166 296.837 124.28 296.032 122.408 295.203 123.598 293.443 124.769 294.122 126.078 293.509 127.265 294.11 128.487 294.64 129.724 295.135ZM133.034 300.54C130.558 301.671 128.118 302.828 125.615 303.888 114.149 307.952 99.931 303.354 93.623 292.786 99.049 291.016 105.022 291.678 110.24 289.149 114.032 294.225 126.77 298.94 133.034 300.54ZM123.867 292.284C122.69 292.691 121.55 293.472 121.218 294.675 119.567 293.938 117.915 293.181 116.32 292.328 117.76 291.75 118.638 290.184 120.114 289.673 121.319 290.611 122.566 291.491 123.867 292.284ZM115.415 285.127C116.263 286.352 117.396 287.443 118.565 288.428 117.481 289.362 115.774 290.389 115.606 291.937 114.012 291.05 112.429 290.02 111.153 288.693 112.807 287.801 114.298 286.634 115.415 285.127ZM60.901 89.494C60.898 89.069 60.9 88.643 60.914 88.219 60.919 88.051 60.913 87.823 60.951 87.634 61.064 87.606 61.099 87.475 61.055 87.383 61.303 87.182 61.63 87.082 61.886 86.887 62.789 87.179 63.677 87.164 64.554 87.257 65.113 87.607 65.728 87.964 66.369 88.15 66.423 88.574 66.401 89.099 66.372 89.542 64.441 89.406 62.781 89.468 60.901 89.494ZM66.299 91.651C66.263 92.095 66.202 92.799 66.159 93.395 64.455 93.398 62.762 93.126 61.06 93.144 60.947 92.579 60.99 91.887 60.964 91.446 60.961 91.393 60.959 91.339 60.956 91.286 62.777 91.321 64.455 91.528 66.299 91.651ZM30.779 73.728C33.856 71.496 36.87 69.184 39.793 66.744 40.216 70.468 40.599 74.204 40.843 77.945L41.112 86.358C41.104 87.686 41.071 89.014 41.004 90.343 35.429 86.67 31.709 81.022 27.063 76.371 27.933 75.764 28.798 75.153 29.66 74.536 30.186 74.635 30.672 74.226 30.779 73.728ZM62.269 85.025C59.406 79.032 59.055 72.327 59.82 65.821 60.327 58.705 60.396 51.552 59.917 44.432 59.314 37.957 58.888 28.737 52.82 24.928 54.924 23.582 57.024 22.169 59.53 21.745 59.393 25.135 61.198 28.269 63.18 30.91 64.585 32.965 66.301 35.226 68.912 35.618 69.413 38.435 69.533 41.316 69.702 44.17 70.679 57.777 72.593 72.309 66.525 85.056 65.133 84.914 63.679 85.146 62.269 85.025ZM56.978 18.625C58.122 18.516 59.264 18.437 60.408 18.336 60.247 18.652 60.105 18.98 59.986 19.318 59.921 19.501 59.865 19.685 59.814 19.87 58.963 19.499 57.88 19.871 57.056 20.142 57.025 19.637 56.996 19.131 56.978 18.625ZM68.022 93.881C68.939 94.221 68.714 94.719 67.866 95.061 67.948 94.675 67.979 94.276 68.022 93.881ZM103.416 31.967C110.87 43.657 111.726 62.145 112.383 75.68 112.356 77.813 112.187 79.954 112.166 82.088 111.041 81.951 109.914 81.813 108.784 81.752 108.442 72.684 107.799 63.637 107.81 54.559 107.236 49.018 105.058 43.805 102.6 38.857 103.395 37.502 103.48 34.187 103.091 32.098 103.055 31.906 103.312 31.803 103.416 31.967ZM109.28 83.108C109.785 83.209 110.286 83.326 110.789 83.436 110.979 84.165 111.963 84.305 112.615 84.379 112.675 84.833 112.722 85.289 112.744 85.75 111.712 85.43 110.619 85.923 109.584 86.048 109.445 85.089 109.598 84.085 109.28 83.108ZM108.991 99.449C108.769 97.038 108.91 94.624 109.032 92.214 109.034 92.211 109.037 92.208 109.039 92.205 109.865 92.784 110.993 93.039 112.007 92.972 112.105 93.414 112.197 93.874 112.438 94.246 111.049 95.807 109.722 97.467 108.991 99.449ZM110.057 90.144C110.01 89.227 109.854 88.44 109.742 87.55 110.397 87.594 111.952 87.869 112.797 87.507 112.816 88.366 112.891 89.253 112.734 90.097 111.833 90.106 110.952 90.062 110.057 90.144ZM125.407 98.941C126.465 100.488 127.954 102.481 127.741 104.457 127.418 106.386 126.241 108.155 125.025 109.647 123.82 110.742 122.169 110.285 120.65 110.096 120.404 110.065 119.935 110.1 119.926 110.033 119.917 109.966 120.354 109.864 120.574 109.789 122.239 109.225 124.069 108.978 125.052 107.311 125.785 106.545 127.29 104.455 125.511 104.073 123.632 104.321 123.49 107.007 121.616 107.407 120.488 107.761 118.886 108.328 118.157 109.403 116.641 109.629 115.214 110.124 113.662 109.65 117.267 106.883 120.805 103.757 123.493 100.074 124.89 98.281 123.798 97.206 122.185 98.901 118.844 102.287 115.885 106.078 112.241 109.193 111.866 109.036 111.327 108.806 111.035 108.484 111.479 106.779 112.434 105.226 113.68 104.053 114.349 103.171 119.91 97.227 117.367 96.943 114.699 97.591 112.095 104.59 110.1 104.356 110.833 98.147 113.197 97.19 116.11 92.37 119.89 93.414 123.28 95.58 125.407 98.941ZM120.583 84.141C121.501 87.046 122.162 90.023 122.761 93.008 120.844 91.54 118.314 90.374 115.923 90.943 115.514 91.04 115.371 91.393 115.435 91.72 114.971 92.035 114.473 92.298 114.037 92.659 113.97 92.498 113.899 92.338 113.828 92.178 115.247 91.075 114.933 84.883 114.272 83.268 114.585 80.118 114.081 76.901 114.034 73.739 114.62 73.776 115.251 73.603 115.822 73.326 117.884 76.719 119.39 80.345 120.583 84.141ZM56.317 13.873C56.479 13.608 56.665 13.09 56.952 12.941 58.974 13.305 60.916 14.662 62.573 15.886 62.469 15.956 62.368 16.029 62.27 16.105 59.427 16.529 56.614 16.817 53.771 17.208 54.729 16.19 55.591 15.07 56.317 13.873ZM50.859 21.197C51.232 20.255 51.783 19.465 52.403 18.725 53.251 18.862 54.116 18.862 54.982 18.806 54.757 19.593 54.65 20.418 54.706 21.237 53.21 22.159 51.795 23.137 50.401 24.232 50.358 23.187 50.489 22.133 50.859 21.197ZM14.707 56.047C15.401 53.997 16.831 52.206 17.843 50.298 19.524 46.876 20.516 45.815 24.358 45.222 21.089 49.231 17.831 53.252 14.747 57.406 14.658 56.928 14.617 56.466 14.707 56.047ZM6.889 76.747C6.371 72.824 12.973 64.773 15.228 61.242 18.627 66.565 23.702 70.365 28.763 73.964 28.042 74.607 27.318 75.248 26.593 75.887 26.383 75.666 26.175 75.443 25.973 75.211 25.683 74.88 25.134 75.309 25.365 75.68 26.051 76.78 26.564 77.936 27.254 79.032 29.372 82.245 31.923 85.169 34.814 87.711 38.883 91.397 43.562 94.23 48.281 96.989 49.351 97.567 52.859 100.585 52.886 97.892 53.735 97.008 54.596 96.134 55.449 95.254 56.226 94.453 57.457 92.606 58.754 92.962 58.698 96.228 62.516 97.327 65.242 96.633 67.327 97.915 69.807 98.526 71.915 99.801 72.01 99.841 72.098 99.887 72.183 99.936 72.593 100.347 72.953 100.813 73.222 101.337 73.508 102.333 73.327 103.556 72.998 104.462 72.562 104.215 64.823 98.479 66.151 100.951 68.291 102.468 70.817 103.898 72.453 105.939 72.341 106.217 72.36 106.499 72.476 106.698 72.206 107.872 72.72 109.772 71.538 110.469 70.614 107.443 67.372 105.995 64.75 104.676 64.097 104.391 63.573 105.232 64.184 105.645 65.92 106.959 68.007 107.999 69.357 109.74 69.966 110.67 69.861 113.167 69.086 113.961 67.255 112.188 65.154 110.726 63.189 109.108 62.705 108.722 62.021 109.357 62.491 109.806 63.915 111.151 65.313 112.523 66.756 113.848 67.59 114.517 67.865 114.643 67.082 115.44 64.14 115.494 63.066 112.877 61.807 113.545 58.799 112.887 55.749 112.44 52.685 112.923 47.37 109.697 41.196 107.642 35.823 104.357 24.456 97.522 11.504 89.91 6.889 76.747ZM13.423 100.213C12.974 96.879 12.581 93.579 12.188 90.228 14.923 93.433 18.299 95.947 21.735 98.344 18.936 98.669 15.98 98.964 13.423 100.213ZM36.921 140.381C36.571 140.288 36.216 140.213 35.902 140.118 32.193 138.999 28.616 137.507 25.015 136.088 28.744 136.717 32.558 137.591 36.349 137.359 37.286 137.217 37.16 135.812 36.349 135.587 32.112 134.963 27.792 134.72 23.619 133.641 19.581 133.05 17.651 131.454 17.09 127.312 15.702 118.709 14.763 110.025 13.575 101.392 17.085 100.881 20.557 100.024 24.136 100.024 29.138 103.539 34.383 106.684 39.879 109.365 39.704 114.823 38.92 120.244 37.972 125.616 37.639 127.627 37.338 129.651 36.852 131.631 36.724 132.151 36.929 132.533 37.254 132.743 37.391 133.118 37.861 133.318 38.166 133.56 37.422 135.727 37.253 138.111 36.921 140.381ZM31.434 278.242C38.408 281.682 51.19 283.572 57.877 278.855 57.631 282.035 57.352 285.256 56.845 288.396 54.086 289.893 50.784 288.706 47.815 289.049 47.429 288.773 46.916 288.69 46.399 288.759 43.96 289.088 41.424 288.854 39.046 288.266 33.437 287.038 30.171 284.45 31.434 278.242ZM34.429 290.14C34.815 290.299 35.202 290.448 35.581 290.589 37.536 291.316 39.602 291.804 41.683 292.034 43.832 297.466 49.162 306.785 55.396 307.772 53.844 310.659 48.993 310.91 46.05 311.285 39.011 310.335 35.524 302.338 34.203 296.127 34.46 294.144 34.478 292.137 34.429 290.14ZM43.351 292.16C44.859 292.07 46.774 292.388 48.017 291.412 51.056 291.386 54.269 292.077 57.155 290.821 57.256 291.829 57.424 292.841 57.657 293.842 53.788 292.76 48.084 293.41 45.167 296.261 44.477 294.934 43.866 293.564 43.351 292.16ZM65.993 306.858C67.246 307.92 68.311 309.211 69.254 310.551 69.74 311.26 69.881 312.319 70.756 312.656 69.861 315.158 62.317 315.627 59.891 315.968 55.217 316.346 50.152 317.743 45.75 315.475 43.861 314.482 42.553 312.428 40.36 312.173 38.544 311.053 36.276 310.802 34.514 309.525 33.589 308.962 32.372 308.23 31.798 307.282 30.723 304.248 33.253 300.821 33.858 297.856 35.047 304.026 39.147 311.016 45.785 312.246 48.431 312.294 51.346 311.841 53.625 310.428 54.602 309.731 55.25 308.665 55.901 307.674 55.988 307.541 55.895 307.385 55.764 307.337 54.569 306.899 53.489 306.305 52.503 305.594 55.908 304.726 59.219 303.294 62.811 303.843 63.785 304.929 64.847 305.924 65.993 306.858ZM59.167 298.308C57.048 298.106 54.922 298.012 52.808 298.353 52.166 298.456 47.161 299.684 48.21 300.924 48.704 301.509 49.947 300.813 50.506 300.638 53.59 299.524 56.911 299.736 60.107 300.144 60.514 300.849 60.951 301.526 61.44 302.167 57.999 302.092 54.503 303.204 51.494 304.8 48.93 302.587 46.976 299.597 45.349 296.61 45.463 296.704 45.614 296.758 45.758 296.736 47.725 296.423 49.574 295.593 51.543 295.25 53.547 294.901 55.562 294.994 57.52 295.534 57.747 295.597 57.943 295.572 58.101 295.491 58.396 296.452 58.752 297.396 59.167 298.308ZM82.081 243.685C80.016 224.774 82.711 205.078 76.467 186.798 77.065 184.621 94.157 146.324 87.951 150.758 84.793 162.444 79.607 173.391 75.104 184.586 74.496 184.673 74.389 185.325 74.62 185.829 69.757 197.532 68.24 210.163 65.401 222.421 60.323 240.361 57.696 258.856 57.948 277.51 51.388 281.489 43.464 280.775 36.308 279.027 34.824 278.694 32.98 278.268 31.622 277.33 37.504 259.276 31.856 239.886 37.777 221.814 47.639 193.365 38.127 163.65 39.567 134.485 60.537 146.581 86.59 146.5 109.74 141.931 106.893 160.666 110.009 179.754 107.517 198.568 107.941 209.725 109.223 220.787 107.205 231.898 106.943 234.697 106.752 237.503 106.635 240.312 106.483 245.22 105.555 251.127 109.756 254.678 111.502 256.116 113.27 257.604 114.279 259.68 117.612 265.395 111.825 264.923 109.69 268.811 108.443 271.274 108.473 274.431 109.85 276.836 102.604 279.398 95.116 281.538 87.53 282.845 85.299 269.854 83.209 256.824 82.081 243.685ZM89.136 291.678C88.498 288.989 88.196 286.509 87.698 283.828 94.055 283.456 100.025 281.071 106.203 279.699 107.882 279.301 109.107 278.821 110.804 278.195 111.832 279.435 112.953 280.516 114.067 281.65 109.479 290.971 96.657 286.653 89.136 291.678ZM143.485 305.162C142.648 306.654 141.24 307.344 139.577 307.768 132.981 308.761 126.107 310.247 119.432 309.397 116.162 308.893 112.971 307.293 109.617 307.957 102.887 309.09 95.465 308.505 89.36 305.365 88.254 303.067 89.635 300.448 90.498 298.289 91.702 297.645 90.92 295.134 90.975 293.958 91.628 293.608 92.292 293.28 92.98 293.019 98.181 304.342 112.963 308.692 124.422 305.69 128.172 304.219 131.965 302.618 135.526 300.739 136.011 300.727 136.496 300.684 136.979 300.599 137.659 300.48 137.501 299.364 136.816 299.396 134.221 299.515 131.822 298.953 129.399 298.072 130.159 297.171 131.085 296.4 132.21 296.046 136.714 297.51 145.346 298.502 143.485 305.162Z" class="MsftOfcResponsive_Fill_000000" fill="#000000"/><g><path d="M41.805 31.768C42.878 32.832 43.91 33.918 44.733 35.191 45.573 36.49 46.253 37.904 46.779 39.358 47.849 42.311 48.352 45.459 48.332 48.597 48.294 54.538 44.692 59.066 41.615 63.95 40.729 65.357 39.651 66.509 38.513 67.747 38.046 68.255 37.973 69.284 38.422 69.646 38.818 69.964 39.69 69.682 40.073 69.242 41.192 67.958 42.15 67.056 42.976 65.757 44.746 62.972 46.763 60.992 48.117 57.978 49.354 55.223 50.295 52.395 50.355 49.352 50.42 46.067 49.931 42.717 48.869 39.605 47.721 36.243 45.744 32.609 42.616 30.715 41.965 30.32 41.263 31.231 41.805 31.768L41.805 31.768Z" fill="#FFFFFF"/><path d="M99.402 35.77C93.252 37.087 89.756 43.896 88.77 49.569 88.687 50.05 88.619 50.533 88.571 51.018 88.353 50.36 88.118 49.708 87.86 49.065 87.12 47.22 86.252 45.426 85.252 43.708 83.53 40.751 81.422 37.884 78.805 35.642 79.92 35.309 81.03 34.958 82.138 34.606 82.724 34.42 83.31 34.233 83.898 34.055 84.449 33.888 85.021 33.801 85.34 33.267 85.518 32.97 85.406 32.568 85.111 32.394 84.522 32.045 83.888 32.332 83.291 32.515 82.641 32.714 81.995 32.925 81.348 33.133 79.692 33.666 78.033 34.192 76.354 34.65 74.656 35.114 73.086 35.553 71.327 35.679 70.401 35.745 69.64 35.618 68.996 35.61 68.309 35.602 67.536 35.354 66.917 35.698 66.803 35.761 66.712 35.939 66.766 36.069 67.213 37.149 68.833 37.126 69.842 37.136 71.203 37.149 72.527 37.183 73.857 36.913 74.928 36.696 75.988 36.435 77.041 36.148 79.627 38.688 81.852 41.485 83.625 44.659 84.55 46.315 85.35 48.033 86.028 49.804 86.349 50.642 86.647 51.487 86.912 52.345 87.171 53.184 87.258 54.354 87.969 54.94 88.224 55.151 88.665 55.234 88.951 55.037 89.358 55.241 90.013 54.961 90.038 54.407 90.331 47.899 92.808 39.505 99.892 37.549 101.042 37.231 100.557 35.523 99.402 35.77Z" fill="#FFFFFF"/></g></g></g></svg>